<svg width="223" height="317" viewBox="0 0 223 317" fill="none" xmlns="http://www.w3.org/2000/svg">
<path opacity="0.1" d="M69.9672 310.302C50.4139 305.062 35.0005 297.857 23.7271 288.687C12.5441 279.179 5.36541 268.212 2.19108 255.786C-0.892821 243.022 -0.354746 228.877 3.80531 213.352L13.0298 178.925L71.6899 194.643L66.6707 213.375C62.6011 228.563 61.5038 240.749 63.3788 249.934C65.2539 259.118 70.866 265.143 80.2151 268.01C88.9804 270.359 96.3354 268.531 102.28 262.528C108.562 256.614 113.195 248.089 116.179 236.951L123.912 208.094C126.896 196.956 125.313 188.03 119.162 181.318C113.012 174.605 102.733 169.138 88.3271 164.917L64.5597 158.548L73.2415 126.147L97.5147 132.651C104.257 134.458 110.552 135.24 116.398 134.998C122.244 134.755 127.428 133.612 131.951 131.568C136.9 129.277 140.716 126.501 143.396 123.24C146.167 119.642 148.14 115.649 149.316 111.261L154.878 90.504C157.5 80.7162 157.907 71.7816 156.098 63.7002C154.289 55.6188 148.664 50.3134 139.225 47.7841C129.448 45.1644 121.62 47.4079 115.741 54.5145C110.2 61.7115 105.53 72.3977 101.731 86.5732L98.4755 98.7236L39.3097 82.8702L46.7707 55.0255C53.1012 31.3997 64.8054 15.3634 81.8833 6.9166C99.2983 -1.43983 122.502 -1.73374 151.495 6.03489C181.837 14.1649 202.089 25.5603 212.253 40.2211C222.753 54.9723 225.019 73.4858 219.051 95.7616L212.946 118.544C208.334 135.757 200.243 148.42 188.675 156.535C177.443 164.739 163.296 167.641 146.234 165.239C162.482 170.678 173.587 179.803 179.549 192.615C185.511 205.427 186.185 220.439 181.573 237.652L175.74 259.421C171.218 276.297 164.6 289.536 155.884 299.138C147.259 308.403 135.818 314.019 121.56 315.986C107.729 317.707 90.532 315.812 69.9672 310.302Z" fill="white"/>
</svg>
