<svg width="24" height="24" viewBox="0 0 24 24" fill="none" xmlns="http://www.w3.org/2000/svg">
<path d="M12.8432 18.1568C14.5559 19.0188 16.5723 19.6404 18.9375 19.9063C19.5115 19.9709 20 19.511 20 18.9334V16.7808C20 16.3219 19.6877 15.9219 19.2425 15.8106L16.5493 15.1373C16.2085 15.0521 15.848 15.152 15.5996 15.4004L12.8432 18.1568ZM12.8432 18.1568C9.72749 16.5888 7.61705 14.225 6.24117 11.7588M6.24117 11.7588C4.93032 9.40926 4.28622 6.96674 4.07481 5.03084C4.01343 4.46884 4.46855 4 5.03389 4H7.1802C7.65688 4 8.06729 4.33646 8.16078 4.80388L8.89504 8.47521C8.96061 8.80307 8.85799 9.14201 8.62157 9.37843L6.24117 11.7588Z" stroke="url(#paint0_linear_543_87)" stroke-width="2"/>
<path d="M13.1449 6.11009C12.6028 6.00471 12.0779 6.35877 11.9725 6.90091C11.8671 7.44305 12.2212 7.96797 12.7633 8.07335L13.1449 6.11009ZM15.9318 11.2641C16.0334 11.8069 16.5558 12.1646 17.0987 12.063C17.6415 11.9614 17.9993 11.439 17.8977 10.8961L15.9318 11.2641ZM13.2188 2.07435C12.6706 2.00704 12.1716 2.39686 12.1043 2.94502C12.037 3.49319 12.4268 3.99213 12.975 4.05944L13.2188 2.07435ZM19.9334 10.9694C20.0046 11.5171 20.5062 11.9035 21.0539 11.8323C21.6016 11.7612 21.9879 11.2595 21.9168 10.7119L19.9334 10.9694ZM12.7633 8.07335C13.5504 8.22634 14.2733 8.61236 14.8383 9.18132L16.2575 7.77205C15.41 6.91862 14.3256 6.33959 13.1449 6.11009L12.7633 8.07335ZM14.8383 9.18132C15.4033 9.75027 15.7843 10.4759 15.9318 11.2641L17.8977 10.8961C17.6764 9.71393 17.105 8.62548 16.2575 7.77205L14.8383 9.18132ZM12.975 4.05944C14.7372 4.27581 16.3773 5.07222 17.6371 6.32325L19.0464 4.9041C17.4717 3.34033 15.4215 2.34481 13.2188 2.07435L12.975 4.05944ZM17.6371 6.32325C18.8969 7.57427 19.7048 9.20881 19.9334 10.9694L21.9168 10.7119C21.6309 8.51107 20.6211 6.46788 19.0464 4.9041L17.6371 6.32325Z" fill="url(#paint1_linear_543_87)"/>
<defs>
<linearGradient id="paint0_linear_543_87" x1="12" y1="1.57962" x2="12" y2="20" gradientUnits="userSpaceOnUse">
<stop stop-color="#7A1FC1"/>
</linearGradient>
<linearGradient id="paint1_linear_543_87" x1="16.9396" y1="1.85471" x2="16.9396" y2="11.0801" gradientUnits="userSpaceOnUse">
<stop stop-color="#7A1FC1"/>
</linearGradient>
</defs>
</svg>
