<svg width="239" height="177" viewBox="0 0 239 177" fill="none" xmlns="http://www.w3.org/2000/svg">
<path opacity="0.1" d="M-0.000166714 286.267C2.74489 276.022 5.48994 265.777 8.23499 255.533C10.98 245.288 13.7251 235.043 16.4701 224.799C21.4112 206.358 27.5215 192.44 34.801 183.044C42.5137 173.399 51.8989 166.397 62.9565 162.04C74.4474 157.433 88.5016 153.513 105.119 150.279C118.636 147.679 129.59 144.392 137.981 140.418C146.372 136.444 153.157 130.942 158.338 123.912C163.951 116.632 168.451 106.675 171.837 94.0398C175.564 81.4962 176.463 71.3059 174.534 63.4688C172.604 55.6317 166.855 50.4311 157.285 47.867C148.058 45.3945 140.295 47.7066 133.998 54.8035C128.134 61.6504 123.098 72.9281 118.889 88.6366L113.261 109.638L53.7946 93.7041L63.9513 55.7988C70.5394 31.2116 82.6118 14.8651 100.168 6.75909C118.158 -1.59679 141.336 -1.97436 169.703 5.62638C191.234 11.3956 207.544 18.877 218.634 28.0706C229.724 37.2642 236.185 48.6946 238.017 62.3618C240.191 76.1206 238.579 93.074 233.18 113.222C226.775 137.126 217.675 155.367 205.88 167.945C194.085 180.523 177.416 189.416 155.874 194.624C146.574 196.524 137.786 198.561 129.511 200.736C121.236 202.911 113.724 205.656 106.975 208.972C100.567 212.379 95.1609 217.518 90.7555 224.39C87.5154 228.28 84.4798 232.774 81.6487 237.871C78.9091 242.627 76.7158 248.079 75.0688 254.225L188.363 284.582L175.324 333.245L-0.000166714 286.267Z" fill="white"/>
</svg>
