<svg width="24" height="24" viewBox="0 0 24 24" fill="none" xmlns="http://www.w3.org/2000/svg">
<path d="M12.8432 18.1568C14.5559 19.0188 16.5723 19.6404 18.9375 19.9063C19.5115 19.9709 20 19.511 20 18.9334V16.7808C20 16.3219 19.6877 15.9219 19.2425 15.8106L16.5493 15.1373C16.2085 15.0521 15.848 15.152 15.5996 15.4004L12.8432 18.1568ZM12.8432 18.1568C9.72749 16.5888 7.61705 14.225 6.24117 11.7588M6.24117 11.7588C4.93032 9.40926 4.28622 6.96674 4.07481 5.03084C4.01343 4.46884 4.46855 4 5.03389 4H7.1802C7.65688 4 8.06729 4.33646 8.16078 4.80388L8.89504 8.47521C8.96061 8.80307 8.85799 9.14201 8.62157 9.37843L6.24117 11.7588Z" stroke="url(#paint0_linear_54_446)" stroke-width="2"/>
<path d="M13.1449 6.11034C12.6028 6.00496 12.0779 6.35902 11.9725 6.90115C11.8671 7.44329 12.2212 7.96821 12.7633 8.07359L13.1449 6.11034ZM15.9318 11.2643C16.0334 11.8072 16.5558 12.1649 17.0987 12.0633C17.6415 11.9617 17.9993 11.4393 17.8977 10.8964L15.9318 11.2643ZM13.2188 2.07459C12.6706 2.00729 12.1716 2.3971 12.1043 2.94527C12.037 3.49344 12.4268 3.99238 12.975 4.05968L13.2188 2.07459ZM19.9334 10.9697C20.0046 11.5174 20.5062 11.9037 21.0539 11.8326C21.6016 11.7614 21.9879 11.2598 21.9168 10.7121L19.9334 10.9697ZM12.7633 8.07359C13.5504 8.22659 14.2733 8.61261 14.8383 9.18156L16.2575 7.77229C15.41 6.91886 14.3256 6.33983 13.1449 6.11034L12.7633 8.07359ZM14.8383 9.18156C15.4033 9.75052 15.7843 10.4761 15.9318 11.2643L17.8977 10.8964C17.6764 9.71417 17.105 8.62573 16.2575 7.77229L14.8383 9.18156ZM12.975 4.05968C14.7372 4.27605 16.3773 5.07247 17.6371 6.32349L19.0464 4.90435C17.4717 3.34057 15.4215 2.34505 13.2188 2.07459L12.975 4.05968ZM17.6371 6.32349C18.8969 7.57451 19.7048 9.20906 19.9334 10.9697L21.9168 10.7121C21.6309 8.51131 20.6211 6.46813 19.0464 4.90435L17.6371 6.32349Z" fill="url(#paint1_linear_54_446)"/>
<defs>
<linearGradient id="paint0_linear_54_446" x1="12" y1="1.57962" x2="12" y2="20" gradientUnits="userSpaceOnUse">
<stop stop-color="#6A1BA8"/>
</linearGradient>
<linearGradient id="paint1_linear_54_446" x1="16.9396" y1="1.85495" x2="16.9396" y2="11.0803" gradientUnits="userSpaceOnUse">
<stop stop-color="#6A1BA8"/>
</linearGradient>
</defs>
</svg>
