<svg width="151" height="23" viewBox="0 0 151 23" fill="none" xmlns="http://www.w3.org/2000/svg">
<path d="M6.344 22.432C5.48 22.432 4.688 22.372 3.968 22.252C3.248 22.132 2.624 21.88 2.096 21.496C1.568 21.112 1.16 20.548 0.872 19.804C0.584 19.036 0.44 18.004 0.44 16.708V0.723999H4.616V17.896C4.616 18.4 4.688 18.808 4.832 19.12C5 19.408 5.216 19.6 5.48 19.696C5.744 19.792 6.032 19.84 6.344 19.84C6.632 19.84 6.908 19.792 7.172 19.696C7.436 19.6 7.64 19.408 7.784 19.12C7.952 18.808 8.036 18.4 8.036 17.896V0.723999H12.212V16.708C12.212 17.98 12.068 19 11.78 19.768C11.492 20.536 11.084 21.112 10.556 21.496C10.052 21.88 9.428 22.132 8.684 22.252C7.964 22.372 7.184 22.432 6.344 22.432ZM15.1722 22V0.723999H22.9482C24.3642 0.723999 25.4322 1.048 26.1522 1.696C26.8722 2.32 27.2322 3.196 27.2322 4.324V7.636C27.2322 8.764 26.9322 9.712 26.3322 10.48C25.7322 11.248 24.7962 11.692 23.5242 11.812C24.3402 11.932 24.9162 12.208 25.2522 12.64C25.6122 13.048 25.9242 13.72 26.1882 14.656L28.2042 22H23.5602L22.0122 14.944C21.9402 14.56 21.8442 14.212 21.7242 13.9C21.6042 13.588 21.4722 13.348 21.3282 13.18C21.1842 12.988 20.9922 12.892 20.7522 12.892H19.5282V22H15.1722ZM19.5282 10.012H21.2562C21.8802 10.012 22.3482 9.832 22.6602 9.472C22.9722 9.112 23.1282 8.5 23.1282 7.636V5.08C23.1282 4.312 22.9842 3.772 22.6962 3.46C22.4082 3.148 22.0362 2.992 21.5802 2.992H19.5282V10.012ZM30.2893 22V0.723999H34.4653V22H30.2893ZM42.8964 22.252C41.6244 22.252 40.5324 22.072 39.6204 21.712C38.7324 21.352 38.0484 20.716 37.5684 19.804C37.0884 18.892 36.8484 17.608 36.8484 15.952V14.692C37.5924 14.692 38.3244 14.692 39.0444 14.692C39.7644 14.692 40.4844 14.692 41.2044 14.692V16.312C41.2044 17.2 41.2764 17.884 41.4204 18.364C41.5644 18.82 41.7684 19.144 42.0324 19.336C42.2964 19.504 42.6084 19.588 42.9684 19.588C43.5204 19.588 43.9524 19.396 44.2644 19.012C44.6004 18.604 44.7684 17.824 44.7684 16.672C44.7684 15.784 44.6244 15.124 44.3364 14.692C44.0724 14.236 43.6404 13.876 43.0404 13.612C42.4404 13.324 41.6724 12.976 40.7364 12.568C39.8964 12.208 39.2004 11.776 38.6484 11.272C38.0964 10.768 37.6884 10.132 37.4244 9.364C37.1604 8.596 37.0284 7.66 37.0284 6.556C37.0284 5.164 37.2084 4.036 37.5684 3.172C37.9524 2.308 38.5764 1.684 39.4404 1.3C40.3284 0.891999 41.5164 0.688 43.0044 0.688C44.9244 0.688 46.3884 1.108 47.3964 1.948C48.4284 2.764 48.9444 4 48.9444 5.656V8.212C48.2484 8.212 47.5524 8.212 46.8564 8.212C46.1844 8.212 45.4884 8.212 44.7684 8.212V6.916C44.7684 5.836 44.6364 5.08 44.3724 4.648C44.1324 4.216 43.6884 4 43.0404 4C42.4164 4 41.9724 4.192 41.7084 4.576C41.4444 4.96 41.3124 5.584 41.3124 6.448C41.3124 7.24 41.4684 7.864 41.7804 8.32C42.1164 8.752 42.5364 9.088 43.0404 9.328C43.5444 9.544 44.0844 9.76 44.6604 9.976C45.7164 10.384 46.5804 10.804 47.2524 11.236C47.9244 11.644 48.4164 12.22 48.7284 12.964C49.0404 13.684 49.1964 14.728 49.1964 16.096C49.1964 17.632 48.9324 18.856 48.4044 19.768C47.9004 20.656 47.1684 21.292 46.2084 21.676C45.2724 22.06 44.1684 22.252 42.8964 22.252ZM53.6829 22V3.676H50.3709V0.723999H61.1709V3.676H57.8589V22H53.6829Z" fill="url(#paint0_linear_476_57)"/>
<path d="M63.0198 22V0.723999H70.5798C71.9238 0.723999 72.9438 1.048 73.6398 1.696C74.3598 2.32 74.7198 3.196 74.7198 4.324V6.736C74.7198 7.36 74.6238 7.936 74.4318 8.464C74.2638 8.968 73.9998 9.4 73.6398 9.76C73.3758 10.024 73.0398 10.228 72.6318 10.372C72.2238 10.516 71.8278 10.6 71.4438 10.624V10.66C71.8518 10.66 72.2478 10.708 72.6318 10.804C73.0158 10.9 73.3758 11.092 73.7118 11.38C74.1198 11.692 74.4438 12.124 74.6838 12.676C74.9238 13.204 75.0438 13.864 75.0438 14.656V17.572C75.0438 18.724 74.8398 19.624 74.4318 20.272C74.0478 20.92 73.4838 21.376 72.7398 21.64C72.0198 21.88 71.1558 22 70.1478 22H63.0198ZM67.2318 19.804H69.1758C69.5358 19.804 69.8238 19.744 70.0398 19.624C70.2798 19.48 70.4598 19.228 70.5798 18.868C70.7238 18.508 70.7958 17.98 70.7958 17.284V14.764C70.7958 13.804 70.6278 13.18 70.2918 12.892C69.9798 12.58 69.5598 12.424 69.0318 12.424H67.2318V19.804ZM67.2318 9.796H68.9238C69.4758 9.796 69.9078 9.604 70.2198 9.22C70.5558 8.836 70.7238 8.164 70.7238 7.204V5.08C70.7238 4.336 70.5798 3.808 70.2918 3.496C70.0278 3.16 69.6798 2.992 69.2478 2.992H67.2318V9.796ZM77.6448 22V0.723999H87.4368V3.676H82.0008V9.364H86.6088V12.64H82.0008V19.12H87.4368V22H77.6448ZM89.6683 22V0.723999H97.4443C98.8603 0.723999 99.9283 1.048 100.648 1.696C101.368 2.32 101.728 3.196 101.728 4.324V7.636C101.728 8.764 101.428 9.712 100.828 10.48C100.228 11.248 99.2923 11.692 98.0203 11.812C98.8363 11.932 99.4123 12.208 99.7483 12.64C100.108 13.048 100.42 13.72 100.684 14.656L102.7 22H98.0563L96.5083 14.944C96.4363 14.56 96.3403 14.212 96.2203 13.9C96.1003 13.588 95.9683 13.348 95.8243 13.18C95.6803 12.988 95.4883 12.892 95.2483 12.892H94.0243V22H89.6683ZM94.0243 10.012H95.7523C96.3763 10.012 96.8443 9.832 97.1562 9.472C97.4683 9.112 97.6243 8.5 97.6243 7.636V5.08C97.6243 4.312 97.4803 3.772 97.1923 3.46C96.9043 3.148 96.5323 2.992 96.0763 2.992H94.0243V10.012ZM104.785 22V0.723999H112.561C113.977 0.723999 115.045 1.048 115.765 1.696C116.485 2.32 116.845 3.196 116.845 4.324V7.636C116.845 8.764 116.545 9.712 115.945 10.48C115.345 11.248 114.409 11.692 113.137 11.812C113.953 11.932 114.529 12.208 114.865 12.64C115.225 13.048 115.537 13.72 115.801 14.656L117.817 22H113.173L111.625 14.944C111.553 14.56 111.457 14.212 111.337 13.9C111.217 13.588 111.085 13.348 110.941 13.18C110.797 12.988 110.605 12.892 110.365 12.892H109.141V22H104.785ZM109.141 10.012H110.869C111.493 10.012 111.961 9.832 112.273 9.472C112.585 9.112 112.741 8.5 112.741 7.636V5.08C112.741 4.312 112.597 3.772 112.309 3.46C112.021 3.148 111.649 2.992 111.193 2.992H109.141V10.012ZM119.903 22V0.723999H124.079V22H119.903ZM127.11 22V0.723999H136.902V3.676H131.466V9.364H136.074V12.64H131.466V19.12H136.902V22H127.11ZM144.533 22.252C143.261 22.252 142.169 22.072 141.257 21.712C140.369 21.352 139.685 20.716 139.205 19.804C138.725 18.892 138.485 17.608 138.485 15.952V14.692C139.229 14.692 139.961 14.692 140.681 14.692C141.401 14.692 142.121 14.692 142.841 14.692V16.312C142.841 17.2 142.913 17.884 143.057 18.364C143.201 18.82 143.405 19.144 143.669 19.336C143.933 19.504 144.245 19.588 144.605 19.588C145.157 19.588 145.589 19.396 145.901 19.012C146.237 18.604 146.405 17.824 146.405 16.672C146.405 15.784 146.261 15.124 145.973 14.692C145.709 14.236 145.277 13.876 144.677 13.612C144.077 13.324 143.309 12.976 142.373 12.568C141.533 12.208 140.837 11.776 140.285 11.272C139.733 10.768 139.325 10.132 139.061 9.364C138.797 8.596 138.665 7.66 138.665 6.556C138.665 5.164 138.845 4.036 139.205 3.172C139.589 2.308 140.213 1.684 141.077 1.3C141.965 0.891999 143.153 0.688 144.641 0.688C146.561 0.688 148.025 1.108 149.033 1.948C150.065 2.764 150.581 4 150.581 5.656V8.212C149.885 8.212 149.189 8.212 148.493 8.212C147.821 8.212 147.125 8.212 146.405 8.212V6.916C146.405 5.836 146.273 5.08 146.009 4.648C145.769 4.216 145.325 4 144.677 4C144.053 4 143.609 4.192 143.345 4.576C143.081 4.96 142.949 5.584 142.949 6.448C142.949 7.24 143.105 7.864 143.417 8.32C143.753 8.752 144.173 9.088 144.677 9.328C145.181 9.544 145.721 9.76 146.297 9.976C147.353 10.384 148.217 10.804 148.889 11.236C149.561 11.644 150.053 12.22 150.365 12.964C150.677 13.684 150.833 14.728 150.833 16.096C150.833 17.632 150.569 18.856 150.041 19.768C149.537 20.656 148.805 21.292 147.845 21.676C146.909 22.06 145.805 22.252 144.533 22.252Z" fill="white"/>
<defs>
<linearGradient id="paint0_linear_476_57" x1="75.5" y1="-9.84076" x2="75.5" y2="27" gradientUnits="userSpaceOnUse">
<stop offset="0.611132" stop-color="#E625B0"/>
</linearGradient>
</defs>
</svg>
